<?xml version="1.0" encoding="utf-8"?>
<!-- Generator: Adobe Illustrator 16.0.0, SVG Export Plug-In . SVG Version: 6.00 Build 0)  -->
<!DOCTYPE svg PUBLIC "-//W3C//DTD SVG 1.1//EN" "http://www.w3.org/Graphics/SVG/1.1/DTD/svg11.dtd">
<svg version="1.1" id="Warstwa_1" xmlns="http://www.w3.org/2000/svg" xmlns:xlink="http://www.w3.org/1999/xlink" x="0px" y="0px"
	 width="612px" height="665.947px" viewBox="0 0 612 665.947" enable-background="new 0 0 612 665.947" xml:space="preserve">
<path fill="#1D4866" d="M208.095,267.974c3.323-0.087,6.405,0.334,9.204,1.132l15.414-112.831c0.347-2.519-1.779-4.957-4.813-5.522
	c-3.069-0.571-5.959,0.987-6.487,3.512l-24.5,115.781C200.463,268.805,204.246,268.068,208.095,267.974z"/>
<path fill="#1D4866" d="M302.865,198.172c-2.411-1.639-5.975-1.381-8.006,0.578l-73.848,71.164
	c5.736,2.422,9.752,7.067,10.845,13.164l71.946-78.393C305.656,202.658,305.252,199.783,302.865,198.172z"/>
<path fill="#7A9FB9" d="M227.634,287.414c0.014,10.84-10.219,21.812-22.869,24.502c-12.652,2.692-22.917-3.916-22.937-14.756
	c-0.021-10.841,10.221-21.809,22.861-24.5C217.341,269.97,227.612,276.573,227.634,287.414z"/>
<g>
	<path fill="#7A9FB9" d="M387.483,241.213c-98.234,0-178.485,76.957-183.797,173.868h367.6
		C565.973,318.17,485.721,241.213,387.483,241.213z"/>
</g>
<path fill="#FFFFFF" d="M376.26,269.225c0,0-42.412,16.969-61.813,52.113c-19.394,35.144-23.021,63.017-23.021,63.017h25.446
	c0,0,1.212-29.082,16.974-57.563C349.6,298.312,376.26,269.225,376.26,269.225z"/>
<path fill="#F5F5F5" d="M387.469,227.91c-10.791,0-19.809,7.487-22.277,17.519c9.209-1.418,18.635-2.177,28.244-2.177
	c5.34,0,10.621,0.27,15.852,0.719C406.319,234.688,397.713,227.91,387.469,227.91z"/>
<path fill="#7A9FB9" d="M387.469,227.91c10.246,0,18.85,6.778,21.813,16.06c5.479,0.466,10.867,1.181,16.193,2.116
	c-2.391-18.871-18.506-33.52-38.012-33.52c-20.367,0-37.029,15.967-38.236,36.031c5.229-1.289,10.559-2.34,15.959-3.17
	C367.66,235.397,376.678,227.91,387.469,227.91z"/>
<path fill="#50718A" d="M576.891,451.956c-3.979,3.979-11.832,7.234-17.455,7.234H210.421c-5.625,0-13.229-3.499-16.888-7.771
	l-17.366-20.256c-3.663-4.271-2.063-7.771,3.563-7.771h415.5c5.623,0,6.973,3.258,2.994,7.234L576.891,451.956z"/>
<g>
	<g>
		<g>
			<g opacity="0.8">
				<g>
					<path fill="#7A9FB9" d="M441.055,164.541c-1.5-1.828-3.188-3.516-4.813-5.246c-1.633-1.723-3.221-3.475-4.967-5.099
						l-5.127-4.944c-1.779-1.575-3.563-3.152-5.344-4.73c-1.748-1.604-3.605-3.1-5.451-4.602c-1.861-1.486-3.643-3.055-5.555-4.479
						c-1.896-1.433-3.795-2.868-5.695-4.304l-1.422-1.076l-1.465-1.023l-2.936-2.045c-3.854-2.787-7.896-5.304-11.885-7.894
						c-2.002-1.28-4.082-2.438-6.111-3.673c-2.029-1.221-4.063-2.451-6.174-3.545c-2.08-1.133-4.162-2.266-6.246-3.399
						c-2.104-1.078-4.242-2.096-6.354-3.147l-3.186-1.569l-3.23-1.425c-2.162-0.941-4.295-1.928-6.479-2.84
						c-17.525-7.194-35.762-12.477-54.346-15.463c-18.564-3.127-37.542-3.412-56.331-1.383c0.021,0.162-0.063,0.344-0.313,0.533
						c-0.315,0.217-0.771,0.427-1.311,0.619c-0.545,0.179-1.177,0.373-1.854,0.583c-1.361,0.391-2.929,0.692-4.396,0.815
						c-2.094,0.226-4.194,0.35-6.273,0.646c-2.079,0.319-4.155,0.64-6.229,0.958l-3.125,0.463c-1.048,0.13-2.063,0.407-3.097,0.604
						l-6.197,1.277c-15.057,4.314-29.512,10.542-43.004,18.355c10.87-6.118,22.254-11.166,33.938-14.94
						c3.479-1.185,6.438-1.428,6.335-0.424c-0.063,0.951-2.938,2.767-6.501,3.974c-1.955,0.604-3.854,1.422-5.773,2.209
						c-1.92,0.788-3.852,1.581-5.792,2.377c-1.931,0.819-3.803,1.809-5.719,2.707c-1.896,0.942-3.845,1.791-5.729,2.787
						c-1.862,1.025-3.736,2.051-5.61,3.078c-1.875,1.026-3.776,2.008-5.574,3.18c-1.828,1.116-3.654,2.232-5.479,3.348
						c-0.899,0.564-1.849,1.068-2.728,1.677l-2.652,1.789c-14.229,9.378-27.271,19.8-39.182,29.11
						c-13.032,14.132-24.258,29.718-33.771,46.091c-9.485,16.392-17.278,33.565-23.561,51.071c-0.845,2.16-1.563,4.375-2.282,6.582
						c-0.725,2.203-1.448,4.402-2.17,6.601l-1.079,3.291c-0.104,0.295-0.146,0.5-0.208,0.728l-0.176,0.674l-0.357,1.344
						c-0.433,1.832-0.813,3.703-1.13,5.641c-1.271,7.735-1.473,16.096-0.998,24.473c1.034,16.76,4.648,33.774,10.224,48.934
						c0.504,1.162,0.841,2.627,0.758,3.348c0.006,0.906-0.396,0.79-0.864-0.248c-6.645-15.401-11.393-33.516-13.042-51.911
						c-0.768-9.188-0.804-18.548,0.654-27.316c0.168-1.102,0.396-2.159,0.597-3.25c0.218-1.074,0.498-2.102,0.739-3.167
						c0.679-2.359,1.467-4.866,2.205-7.306c0.754-2.461,1.51-4.928,2.268-7.4c0.856-2.438,1.715-4.881,2.576-7.33
						c6.958-19.583,15.874-39.002,27.188-57.395c11.399-18.302,25.146-35.6,41.244-50.736c2.021-1.79,4.023-3.576,6.027-5.357
						c1.012-0.88,1.994-1.796,3.031-2.641l3.145-2.487c-12.813,8.656-25.051,18.874-36.5,30.655
						c-0.646,1.68-2.086,4.031-4.104,6.502l-6.778,9.352c-1.155,1.534-2.196,3.155-3.247,4.766l-3.159,4.824
						c0.348-0.162,0.621-0.188,0.813-0.078c0.334,0.256,0.225,1.058-0.214,2.142c-0.436,1.092-1.25,2.42-2.152,3.873
						c-10.686,16.028-19.713,33.065-27.678,50.771c-0.16,0.44-0.354,0.838-0.561,1.233l-3.297,8.365
						c-0.563,1.384-1.063,2.798-1.56,4.216l-1.492,4.243l-1.495,4.239l-0.749,2.119c-0.247,0.703-0.519,1.431-0.688,2.062
						c-0.394,1.308-0.813,2.593-1.116,3.946l-0.503,2.002l-0.419,2.046c-2.215,10.937-2.544,22.593-1.813,34.168
						c0.758,11.594,2.614,23.202,5.456,34.479c1.426,5.637,3.126,11.186,5.104,16.564c1.979,5.364,4.25,10.604,6.921,15.383
						c1.313,2.412,2.766,4.658,4.269,6.781l1.166,1.512c0.202,0.255,0.371,0.494,0.604,0.765l0.722,0.834l2.87,3.347
						c0.968,1.104,1.883,2.271,2.894,3.313l2.992,3.188c1.956,2.184,4.074,4.131,6.144,6.147l1.561,1.521l1.625,1.403l3.25,2.822
						c1.063,0.979,2.247,1.76,3.354,2.653c1.143,0.857,2.234,1.785,3.405,2.601l3.533,2.397c0.593,0.396,1.167,0.82,1.772,1.191
						l1.843,1.092l3.681,2.198l3.817,1.99l1.906,1.004l1.979,0.896l3.957,1.813l4.075,1.646c1.354,0.561,2.718,1.104,4.127,1.58
						l4.188,1.498c1.397,0.504,2.851,0.938,4.271,1.404c2.836,0.953,5.743,1.807,8.646,2.67c5.814,1.736,11.738,3.346,17.674,4.994
						l8.938,2.463c2.927,0.818,5.786,1.563,8.644,2.172c1.271,0.195,3.189,0.576,4.062,0.773c1.021,0.234,0.854,0.346-0.365,0.266
						c0.033,0.1,0.354,0.279-0.057,0.242c-2.07-0.225-4.21-0.604-6.353-1.021c-2.146-0.414-4.263-0.896-6.457-1.402
						c-4.396-1-8.781-1.997-13.165-2.993c-8.743-1.979-17.443-3.914-26.044-6.291c-8.581-2.396-17.049-5.3-25.201-9.271
						c-8.152-3.959-15.958-9.045-23.271-15.262c-1.301-1.02-2.509-2.146-3.729-3.271l-3.649-3.357
						c-2.322-2.371-4.688-4.691-6.947-7.125l-3.326-3.713c-1.095-1.234-2.27-2.475-3.218-3.705
						c-1.998-2.463-3.813-5.135-5.445-7.938c1.492,3.016,3.15,5.893,5.007,8.553c0.873,1.346,1.979,2.658,2.954,3.98
						c1.002,1.318,1.994,2.637,2.979,3.938c2.013,2.564,4.092,5.004,6.063,7.469c2.104,2.33,4.113,4.67,6.158,6.879
						c6.659,5.688,13.952,10.654,21.671,14.779c7.728,4.129,15.892,7.352,24.188,10.01c8.304,2.668,16.742,4.813,25.146,6.832
						c4.203,1.004,8.396,2.002,12.563,2.996c4.179,0.963,8.313,2.023,12.468,2.869l-1.343-0.436
						c2.962,0.572,5.716,1.136,5.774,1.355c0.285,0.262-2.193,0.177-5.25-0.349c-3.947-0.634-7.851-1.407-11.77-2.114
						c-3.918-0.729-7.84-1.463-11.766-2.195c-7.856-1.479-15.729-3.133-23.566-5.146c-7.845-1.99-15.646-4.562-23.203-7.896
						c-7.552-3.332-14.854-7.438-21.649-12.278c-1.697-1.209-3.317-2.521-4.984-3.771c-0.817-0.646-1.687-1.248-2.463-1.937
						l-2.367-2.035l-2.37-2.041c-0.798-0.676-1.582-1.36-2.313-2.094l-4.51-4.314l-1.127-1.084l-1.065-1.128l-2.146-2.255
						l-2.146-2.26c-0.72-0.754-1.432-1.479-2.158-2.373c-2.938-3.396-5.438-7.021-7.672-10.729
						c-4.431-7.45-7.865-15.271-10.747-23.258c-2.831-8-5.124-16.166-6.854-24.469c-3.436-16.603-5.057-33.71-3.509-51.228
						c0.165-2.188,0.486-4.387,0.759-6.584c0.364-2.203,0.688-4.406,1.188-6.617c0.422-2.209,1.023-4.418,1.618-6.629l1.021-3.314
						c0.348-1.075,0.7-2.001,1.052-3.01l4.229-11.883c1.522-3.92,3.136-7.814,4.704-11.729c6.511-15.561,14.054-30.775,22.75-45.413
						l6.729-10.866l7.234-10.578c0.59-0.892,1.223-1.754,1.875-2.604l1.931-2.566l3.863-5.136c0.646-0.851,1.271-1.724,1.948-2.558
						l2.053-2.48l4.115-4.959c17.609-20.875,38.563-38.947,62.111-52.867c11.821-6.877,24.263-12.715,37.156-17.347l9.779-3.176
						c0.812-0.278,1.636-0.507,2.469-0.713l2.49-0.648l4.979-1.288c3.303-0.936,6.69-1.502,10.063-2.168l5.052-0.966
						c1.692-0.276,3.402-0.465,5.104-0.698c8.088-1.297,14.851-0.259,14.817,1.309c-0.021,0.826-1.648,1.701-4.252,2.464
						c-0.646,0.19-1.357,0.376-2.125,0.551c-0.759,0.216-1.563,0.433-2.418,0.634c-1.701,0.406-3.573,0.773-5.55,1.074
						c-1.618,0.268-3.253,0.438-4.854,0.786l-4.811,1.019c-3.203,0.688-6.421,1.313-9.554,2.264l-4.729,1.316l-2.357,0.661
						L197.45,72.2l-1.159,0.396l-9.266,3.197c-12.212,4.629-23.961,10.35-35.152,16.989l-8.234,5.224
						c-1.396,0.845-2.702,1.808-4.022,2.752l-3.969,2.836l-3.96,2.843l-3.813,3.04l-3.81,3.044
						c-1.271,1.014-2.547,2.021-3.738,3.124l-7.281,6.482c-1.236,1.053-2.348,2.248-3.521,3.373l-3.477,3.422l-3.47,3.434
						l-3.304,3.595l-3.301,3.597c-1.089,1.211-2.232,2.371-3.25,3.646c-14.948,17.414-27.688,36.358-38.389,56.211
						c8.844-15.265,19.219-29.649,30.85-42.692c1.938-2.727,4.149-5.246,6.271-7.848c2.146-2.58,4.247-5.213,6.583-7.648
						c2.29-2.475,4.563-4.979,6.898-7.428c2.434-2.359,4.869-4.723,7.313-7.092c9.979-9.252,20.823-17.757,32.521-25.188
						c27.994-17.642,58.979-28.131,90.65-31.496c31.706-3.37,64.146,0.234,96.111,10.587c15.479,5.026,29.586,11.065,42.457,18.168
						c12.879,7.077,24.629,14.991,35.439,23.819c10.797,8.834,20.678,18.595,29.438,29.676c4.342,5.574,8.479,11.408,12.105,17.717
						c0.896,1.583,1.811,3.161,2.686,4.77c0.805,1.652,1.607,3.313,2.418,4.98c0.4,0.835,0.813,1.665,1.188,2.515
						c0.34,0.869,0.682,1.741,1.021,2.615c0.654,1.757,1.404,3.472,1.971,5.276c0.727,2.535,1.521,5.33,1.813,6.385
						c0.188,0.521,0.184,0.508,0.021,0.059c-0.143-0.475-0.4-1.373-0.771-2.615c-1.91-7.049-5.113-13.586-8.5-19.92
						c-0.914-1.545-1.828-3.088-2.74-4.629l-1.395-2.297l-1.514-2.212c-1.016-1.471-2.021-2.94-3.034-4.407
						c-1-1.479-2.146-2.841-3.216-4.261c-8.729-11.229-18.729-21.319-29.688-30.426c-10.979-9.103-22.912-17.263-35.828-24.382
						c-6.449-3.574-13.18-6.823-20.137-9.797c-1.715-0.799-3.509-1.446-5.289-2.125c-1.781-0.676-3.57-1.355-5.369-2.039
						c-3.557-1.449-7.299-2.512-11.012-3.719c-31.646-9.851-64.085-13.203-95.833-9.569c-31.726,3.61-62.806,14.325-90.897,32.012
						c-1.861,1.25-3.724,2.495-5.573,3.735c-1.837,1.268-3.731,2.441-5.516,3.781c12.457-7.76,25.458-14.16,38.648-19.086
						c12.411-5.783,25.33-10.265,38.521-13.384c13.201-3.118,26.693-4.72,40.214-5.071c27.057-0.662,54.282,3.896,80.498,13.287
						c10.219,3.537,20.133,7.729,29.693,12.508c9.617,4.731,18.832,10.258,27.748,16.242l3.332,2.266l1.668,1.136l1.623,1.194
						l6.479,4.809c4.197,3.367,8.467,6.688,12.47,10.326c8.093,7.169,15.884,14.81,22.896,23.238
						c1.824,2.082,3.402,4.267,4.697,5.959c0.635,0.854,1.188,1.598,1.594,2.194c0.385,0.612,0.646,1.063,0.754,1.302
						c0.215,0.481-0.262-0.002-1.219-1.142C444.365,168.386,442.836,166.648,441.055,164.541z M26.812,303.754
						c-1.306-9.69-1.719-19.603-0.833-29.524c-0.6,4.839-0.913,9.696-1.009,14.549c-0.075,4.854,0.086,9.701,0.413,14.532
						c0.313,4.833,0.878,9.645,1.577,14.432c0.688,4.789,1.572,9.551,2.642,14.272c2.106,9.446,4.908,18.757,8.595,27.735
						c1.854,4.485,3.93,8.89,6.344,13.11c2.405,4.221,5.185,8.268,8.442,11.879c-4.541-5.471-7.997-11.807-10.955-18.342
						c-2.94-6.56-5.33-13.396-7.384-20.323C30.625,332.187,27.989,317.885,26.812,303.754z"/>
					<path fill="#7A9FB9" d="M22.65,352.862c-3.417-11.157-5.94-22.655-7.809-34.137c-0.947-5.74-1.729-11.478-2.364-17.183
						c-0.646-5.703-1.158-11.375-1.499-17.013c-0.088-1.071-0.296-1.735-0.563-1.198c-0.27,0.547-0.396,1.801-0.321,3.055
						c0.857,10.809,2.104,21.906,4.002,33.037c1.842,11.131,4.306,22.276,7.549,33.012c0.422,1.293,0.91,2.301,1.187,2.326
						C23.088,354.905,22.972,353.937,22.65,352.862z"/>
					<path fill="#7A9FB9" d="M10.6,268.069c0.354-4.871,1.066-9.874,2.234-14.993l0.469-1.93l0.239-0.966l0.118-0.479l0.104-0.399
						l0.893-3.208c0.603-2.143,1.197-4.289,1.808-6.438c0.623-2.146,1.193-4.318,1.88-6.458c0.72-2.131,1.439-4.265,2.163-6.403
						c1.463-4.274,2.889-8.592,4.64-12.813c6.607-17.021,14.868-33.833,25.073-49.836c10.18-16.005,22.173-31.27,35.965-45.146
						c13.796-13.854,29.34-26.383,46.466-36.672c27.751-16.834,58.479-27.297,89.67-31.164l5.857-0.664l2.924-0.324l2.942-0.166
						l5.878-0.313c1.958-0.083,3.909-0.264,5.873-0.211c3.921,0.023,7.837-0.017,11.749,0.063c3.896,0.24,7.809,0.48,11.722,0.721
						c15.604,1.372,31.041,4.354,46.141,8.77c2.479,0.741,4.979,1.396,7.402,2.233c2.42,0.858,4.834,1.717,7.242,2.571
						c4.854,1.588,9.463,3.688,14.088,5.566c1.146,0.479,2.301,0.956,3.443,1.434c1.113,0.527,2.229,1.055,3.348,1.58
						c2.223,1.046,4.428,2.084,6.617,3.115c2.2,0.981,4.328,2.131,6.438,3.241c2.117,1.104,4.213,2.197,6.285,3.278
						c1.369,0.824,2.23,1.113,1.846,0.602c-0.449-0.599-1.836-1.662-3.416-2.496c-2.161-1.182-4.336-2.365-6.508-3.55l-1.631-0.89
						l-1.658-0.807l-3.318-1.617c-2.229-1.071-4.449-2.145-6.686-3.219c-2.23-1.065-4.563-1.953-6.848-2.944
						c-2.299-0.966-4.604-1.933-6.904-2.899c-2.354-0.846-4.721-1.691-7.084-2.54l-3.553-1.274
						c-1.189-0.424-2.365-0.875-3.584-1.213c-2.424-0.723-4.854-1.445-7.277-2.168l-3.646-1.088
						c-1.219-0.375-2.473-0.617-3.697-0.934c-2.482-0.598-4.964-1.197-7.449-1.795c-2.479-0.648-5.013-1.044-7.539-1.514
						c-2.526-0.461-5.063-0.922-7.601-1.383c-2.55-0.379-5.119-0.67-7.688-0.992l-3.854-0.471l-1.938-0.234l-1.938-0.139
						l-7.791-0.523c-1.304-0.078-2.604-0.195-3.909-0.239l-3.917-0.032l-7.854-0.054c-2.623,0.022-5.237,0.222-7.868,0.329
						l-3.942,0.195l-1.977,0.105c-0.655,0.046-1.313,0.135-1.963,0.201l-7.863,0.867c-1.313,0.158-2.635,0.267-3.938,0.468
						l-3.901,0.653l-7.832,1.338c-2.602,0.52-5.16,1.169-7.747,1.756l-3.876,0.906l-1.938,0.457l-1.904,0.557l-7.635,2.252
						c-1.266,0.398-2.557,0.736-3.802,1.188L174.9,60.27L167.413,63c-2.472,0.974-4.877,2.063-7.316,3.1l-3.646,1.591l-1.818,0.804
						c-0.604,0.277-1.185,0.588-1.776,0.881l-7.068,3.588l-3.526,1.815l-3.422,1.981l-6.82,4.006
						c-17.098,10.513-32.72,23.224-46.604,37.322c-13.892,14.108-26.017,29.631-36.305,45.918
						c-2.479,4.123-5.004,8.209-7.364,12.357c-2.271,4.199-4.52,8.391-6.692,12.594c-2.03,4.271-4.01,8.545-5.969,12.801
						c-1.917,4.273-3.58,8.631-5.312,12.934l-1.271,3.23c-0.4,1.084-0.771,2.18-1.146,3.268c-0.747,2.178-1.486,4.354-2.23,6.523
						c-0.729,2.174-1.494,4.324-2.158,6.504c-0.624,2.189-1.246,4.376-1.867,6.557c-0.604,2.18-1.215,4.354-1.819,6.523
						c-0.558,1.951-1.301,4.899-1.845,7.432c-1.105,5.203-1.628,10.247-1.934,15.173c-0.049,1.054,0.163,1.655,0.439,1.304
						C10.236,270.58,10.513,269.111,10.6,268.069z"/>
					<path fill="#7A9FB9" d="M252.654,50.127L244.2,50.33l-8.433,0.682l-4.214,0.359c-1.396,0.161-2.79,0.39-4.186,0.582L219,53.172
						c-2.773,0.5-5.526,1.103-8.293,1.652l-4.146,0.856c-1.383,0.28-2.729,0.698-4.098,1.042l-8.188,2.172
						c-2.717,0.766-5.378,1.705-8.069,2.55c-21.529,6.972-41.972,17.185-61.438,29.474c-1.31,0.836-2.68,1.601-3.931,2.506
						c-1.271,0.887-2.536,1.771-3.805,2.656c-2.517,1.791-5.075,3.53-7.485,5.437c-4.757,3.879-9.634,7.662-14.033,11.95
						c-2.233,2.109-4.514,4.193-6.657,6.41c-2.104,2.248-4.206,4.521-6.292,6.821c-1.026,1.159-2.104,2.289-3.097,3.491
						c-0.979,1.211-1.958,2.425-2.941,3.645c-1.94,2.448-3.917,4.905-5.807,7.444c-9.964,13.735-17.856,27.371-25.14,41.103
						c-1.78,3.449-3.563,6.895-5.352,10.354c-1.661,3.512-3.346,7.02-5.063,10.537c-0.438,0.878-0.867,1.758-1.309,2.641
						c-0.397,0.895-0.811,1.791-1.217,2.688c-0.813,1.794-1.638,3.597-2.463,5.41c-0.838,1.806-1.682,3.622-2.53,5.452
						c-0.854,1.824-1.604,3.707-2.434,5.572c-0.456,0.975-0.711,2.038-0.563,2.398c0.228,0.138,0.726-0.469,1.188-1.453
						c0.918-2.007,1.76-4.035,2.701-6.016c0.938-1.979,1.886-3.952,2.817-5.918c1.859-3.939,3.646-7.885,5.647-11.715
						c0.965-1.935,1.928-3.863,2.89-5.791c0.957-1.93,1.877-3.875,2.938-5.754c2.034-3.799,4.063-7.59,6.104-11.379
						c8.438-15.019,17.854-29.678,29.25-43.684c21.219-25.962,48.071-47.059,78.129-61.434
						c30.049-14.422,63.061-22.267,96.529-23.25c1.422-0.023,2.293-0.271,2.354-0.496C255.116,50.283,253.915,50.093,252.654,50.127
						z"/>
					<path fill="#7A9FB9" d="M111.611,156.396c-7.427,7.971-14.794,16.417-21.256,25.658l-2.464,3.434l-1.229,1.717l-1.15,1.777
						c-1.527,2.376-3.055,4.752-4.577,7.125c-1.563,2.344-2.895,4.846-4.295,7.286c-1.371,2.46-2.792,4.88-4.11,7.351
						c-5.104,9.983-9.715,20.059-13.292,30.18c-0.883,2.529-1.759,5.037-2.627,7.521c-0.816,2.5-1.514,5.03-2.231,7.506
						c-0.709,2.483-1.396,4.94-2.046,7.37c-0.104,0.335-0.104,0.511-0.156,0.765l-0.128,0.709l-0.255,1.397
						c-0.123,0.972-0.243,1.938-0.364,2.896c-0.022,0.854,0.26,1.043,0.619,0.563c0.354-0.473,0.795-1.477,0.847-2.24
						c0.088-0.959,0.291-1.796,0.438-2.713l0.116-0.679l0.233-0.878c0.162-0.592,0.324-1.186,0.485-1.78
						c0.652-2.379,1.349-4.782,2.063-7.208c1.354-4.889,3.203-9.675,4.983-14.604c0.461-1.224,0.896-2.467,1.395-3.684
						c0.521-1.207,1.041-2.418,1.564-3.633c1.063-2.426,2.132-4.868,3.208-7.322c0.521-1.238,1.115-2.438,1.727-3.636
						c0.605-1.2,1.212-2.403,1.819-3.608c1.229-2.4,2.433-4.838,3.73-7.223c10.48-19.043,23.716-36.996,37.983-52.375
						c1.403-1.449,2.329-2.956,2.108-3.47C114.425,154.178,113.126,154.9,111.611,156.396z"/>
					<path fill="#7A9FB9" d="M31.077,362.103c-4.568-10.832-7.771-22.039-10.082-33.396c-2.276-11.365-3.646-22.903-3.863-34.582
						c-0.12-5.84,0.054-11.713,0.597-17.621c0.55-5.906,1.449-11.854,2.948-17.812c0.341-1.489,0.796-2.979,1.241-4.468
						c0.438-1.564,0.896-2.778,1.347-4.133c0.896-2.659,1.784-5.314,2.674-7.967l1.318-3.985c0.453-1.323,0.97-2.623,1.446-3.937
						c0.967-2.625,1.931-5.248,2.893-7.867c8.762-19.555,19.116-38.379,30.7-56.485c1.771-2.521,2.748-4.888,2.171-5.298
						c-0.572-0.415-2.51,1.313-4.296,3.861c-1.521,2.271-2.968,4.582-4.467,6.859c-1.478,2.293-3.021,4.545-4.438,6.865
						l-4.174,7.012c-1.358,2.355-2.817,4.66-4.031,7.089c-0.042-0.389-0.185-0.61-0.438-0.646
						c8.794-16.969,19.132-33.293,31.063-48.529c11.938-15.229,25.486-29.355,40.545-41.827c1.729-1.323,2.781-2.629,2.486-2.962
						c-0.284-0.385-1.916,0.404-3.635,1.736c-15.86,12.906-29.982,27.708-42.24,43.701c-12.271,15.996-22.709,33.164-31.442,50.961
						c-0.83,1.222-1.68,2.697-2.438,4.312c-1.896,3.728-3.482,7.57-5.134,11.37c-0.813,1.902-1.636,3.803-2.442,5.702
						c-0.821,1.894-1.494,3.844-2.245,5.76c-1.438,3.856-2.977,7.666-4.313,11.539l-3.854,11.662l-0.479,1.457
						c-0.158,0.479-0.317,0.954-0.484,1.552l-0.977,3.395c-0.552,2.252-1.137,4.509-1.518,6.742
						c-0.874,4.483-1.393,8.918-1.73,13.32c-0.372,4.409-0.438,8.768-0.431,13.119c0.076,4.343,0.271,8.668,0.646,12.975
						c1.021,12.273,3.028,24.17,5.891,35.82c2.906,11.643,6.648,23.043,12.069,34.104c2.737,5.521,5.893,10.961,9.947,16.188
						c2.185,2.771,4.104,4.729,6.104,6.929l3,3.229l3.168,3.127c8.435,8.313,17.979,15.959,28.627,21.942
						c8.401,4.742,17.373,8.19,26.354,10.769c8.993,2.582,18.013,4.379,27.024,6.065c7.565,1.402,15.193,2.748,22.646,3.979
						c1.847,0.302,3.745,0.605,5.659,0.882c1.898,0.267,3.813,0.495,5.729,0.646c1.926,0.146,3.854,0.233,5.823,0.188
						c1.979-0.072,3.986-0.203,6.267-0.936c0.81-0.289,1.646-0.625,2.521-1.271c0.871-0.639,1.746-1.67,2.14-2.858
						c0.407-1.184,0.365-2.289,0.218-3.164l-0.119-0.594l-0.07-0.271c-0.063-0.162-0.106-0.314-0.175-0.478
						c-0.258-0.629-0.6-1.231-0.927-1.856c-0.157-0.313-0.318-0.636-0.449-0.97c-0.116-0.313-0.259-0.737-0.007-1.002
						c0.266-0.229,0.615-0.207,0.937-0.188c0.322,0.021,0.644,0.084,0.965,0.149c0.641,0.146,1.282,0.343,1.934,0.55
						c1.637,0.563,3.247,1.127,4.854,1.688c8.208,2.93,15.998,6.217,23.602,9.604c0.924,0.431,1.004,0.479,0.311,0.143
						c-0.53-0.241-1.813-0.819-2.583-1.172c-3.784-1.7-7.695-3.396-11.694-5.034c-1.999-0.818-4.021-1.633-6.056-2.411
						c-1.021-0.386-2.043-0.769-3.065-1.146l-2.946-1.055c-0.843-0.303-1.49-0.543-2.204-0.775
						c-0.692-0.232-1.386-0.442-2.063-0.614c-0.678-0.153-1.354-0.329-2.021-0.222c-0.165,0.021-0.326,0.105-0.434,0.252
						c-0.106,0.146-0.104,0.351-0.073,0.523c0.067,0.364,0.229,0.707,0.391,1.037c0.33,0.633,0.658,1.271,0.984,1.896
						c0.153,0.313,0.294,0.621,0.404,0.938c0.061,0.146,0.107,0.327,0.159,0.52c0.082,0.379,0.163,0.756,0.188,1.189
						c0.071,0.85-0.019,1.896-0.479,2.896c-0.451,1.021-1.242,1.803-1.979,2.333c-1.521,1.044-2.896,1.386-4.158,1.664
						c-2.496,0.43-4.713,0.372-6.925,0.298c-2.188-0.105-4.339-0.307-6.438-0.58c-2.107-0.271-4.208-0.604-6.257-0.938
						c-2.024-0.338-4.055-0.677-6.071-1.014c-8.097-1.372-16.188-2.706-24.31-4.356c-8.112-1.654-16.271-3.521-24.386-6.109
						c-8.095-2.613-16.123-5.938-23.771-10.098c-11.604-7.121-21.271-16.104-29.744-25.699c-2.067-2.438-4.139-4.879-6.216-7.325
						c-2.188-2.72-4.275-5.634-6.03-8.563C36.639,374.532,33.778,368.403,31.077,362.103z"/>
				</g>
			</g>
		</g>
	</g>
</g>
<path fill="#1D4866" d="M223.599,122.936l8.265-1.98l-0.046-29.175l-8.267,1.979L223.599,122.936z M33.322,331.441l30.209-7.244
	l-0.011-7.979l-30.212,7.24L33.322,331.441z M87.202,184.363l21.396,15.51l5.833-7.047L93.04,177.32L87.202,184.363z
	 M368.35,116.945l-5.854-4.242l-21.329,25.752l5.854,4.243L368.35,116.945z"/>
<g>
	<path fill="#1D4866" d="M498.671,507.176v74.814c0,12.026-3.416,21.224-10.248,27.591s-15.742,9.551-26.73,9.551
		c-10.847,0-19.628-3.194-26.343-9.589c-6.716-6.392-10.072-15.576-10.072-27.553v-74.814h8.452v74.76
		c0,9.393,2.582,16.651,7.748,21.777c5.165,5.126,11.903,7.688,20.215,7.688c8.452,0,15.331-2.551,20.638-7.65
		s7.959-12.371,7.959-21.814v-74.76L498.671,507.176L498.671,507.176z"/>
	<path fill="#1D4866" d="M532.128,571.682v45.858h-8.383V507.176h35.288c10.753,0,19.076,2.944,24.971,8.83
		c5.893,5.888,8.84,13.684,8.84,23.385c0,9.805-2.947,17.638-8.84,23.498c-5.895,5.862-14.218,8.793-24.971,8.793H532.128z
		 M532.128,563.949h26.905c8.452,0,14.804-2.313,19.054-6.937c4.25-4.623,6.375-10.446,6.375-17.472
		c0-7.074-2.113-12.948-6.341-17.623c-4.226-4.674-10.589-7.012-19.088-7.012h-26.906L532.128,563.949L532.128,563.949z"/>
</g>
<g>
	<path fill="#1D4866" d="M84.789,555.02c0,11.288-3.093,20.414-9.276,27.38c-6.185,6.965-14.479,10.446-24.888,10.446
		c-10.247,0-18.423-3.481-24.527-10.446c-6.104-6.966-9.156-16.092-9.156-27.38V540.79c0-11.248,3.042-20.374,9.126-27.38
		c6.084-7.004,14.25-10.507,24.497-10.507c10.407,0,18.712,3.503,24.917,10.507c6.204,7.006,9.308,16.132,9.308,27.38V555.02z
		 M77.644,540.719c0-9.461-2.393-17.077-7.175-22.851c-4.783-5.773-11.418-8.66-19.904-8.66c-8.326,0-14.811,2.887-19.453,8.66
		c-4.644,5.772-6.965,13.39-6.965,22.851v14.372c0,9.541,2.331,17.198,6.995,22.972c4.663,5.773,11.157,8.659,19.483,8.659
		c8.525,0,15.161-2.877,19.903-8.629c4.744-5.753,7.115-13.421,7.115-23.002V540.719z"/>
	<path fill="#1D4866" d="M110.666,552.077v39.508h-7.146v-87.36h29.601c9.366,0,16.551,2.053,21.555,6.154
		c5.003,4.104,7.505,10.097,7.505,17.982c0,4.644-1.342,8.796-4.022,12.458c-2.683,3.663-6.466,6.335-11.349,8.016
		c5.403,1.361,9.296,3.793,11.678,7.295c2.382,3.504,3.573,7.896,3.573,13.18v8.227c0,2.723,0.32,5.164,0.96,7.325
		c0.641,2.161,1.701,3.923,3.183,5.283v1.44h-7.325c-1.481-1.44-2.522-3.462-3.123-6.063c-0.601-2.603-0.9-5.304-0.9-8.105v-7.985
		c0-5.362-1.731-9.597-5.193-12.698c-3.462-3.103-8.296-4.653-14.5-4.653h-24.495V552.077z M110.666,545.953h21.555
		c7.885,0,13.649-1.591,17.292-4.773c3.642-3.182,5.464-7.475,5.464-12.879c0-5.764-1.812-10.195-5.434-13.299
		c-3.624-3.102-9.098-4.653-16.422-4.653h-22.456L110.666,545.953L110.666,545.953z"/>
	<path fill="#1D4866" d="M184.638,591.585v-87.421h25.398c10.688,0,19.514,3.563,26.479,10.688s10.447,16.271,10.447,27.439v11.229
		c0,11.207-3.482,20.354-10.447,27.438s-15.791,10.627-26.479,10.627H184.638L184.638,591.585z M191.783,510.288v75.173h18.253
		c8.646,0,15.761-3.02,21.345-9.059c5.584-6.04,8.376-13.681,8.376-22.919v-11.398c0-9.118-2.802-16.697-8.406-22.736
		c-5.604-6.04-12.709-9.061-21.314-9.061H191.783L191.783,510.288z"/>
	<path fill="#1D4866" d="M314.569,549.256h-42.09v36.205h48.213v6.124h-55.357v-87.421h55.059v6.124h-47.914v32.843h42.09V549.256z"
		/>
	<path fill="#1D4866" d="M343.148,552.077v39.508h-7.145v-87.36h29.601c9.366,0,16.551,2.053,21.555,6.154
		c5.003,4.104,7.505,10.097,7.505,17.982c0,4.644-1.341,8.796-4.021,12.458c-2.683,3.663-6.465,6.335-11.348,8.016
		c5.402,1.361,9.296,3.793,11.678,7.295c2.381,3.504,3.572,7.896,3.572,13.18v8.227c0,2.723,0.319,5.164,0.961,7.325
		c0.64,2.161,1.7,3.923,3.183,5.283v1.44h-7.325c-1.48-1.44-2.521-3.462-3.122-6.063c-0.601-2.603-0.9-5.304-0.9-8.105v-7.985
		c0-5.362-1.731-9.597-5.193-12.698c-3.463-3.103-8.296-4.653-14.5-4.653h-24.499V552.077z M343.148,545.953h21.556
		c7.886,0,13.648-1.591,17.292-4.773c3.643-3.182,5.464-7.475,5.464-12.879c0-5.764-1.813-10.195-5.435-13.299
		c-3.623-3.102-9.096-4.653-16.421-4.653h-22.456V545.953L343.148,545.953z"/>
</g>
</svg>
