<?xml version="1.0" encoding="utf-8"?>
<!-- Generator: Adobe Illustrator 16.0.0, SVG Export Plug-In . SVG Version: 6.00 Build 0)  -->
<!DOCTYPE svg PUBLIC "-//W3C//DTD SVG 1.1//EN" "http://www.w3.org/Graphics/SVG/1.1/DTD/svg11.dtd">
<svg version="1.1" id="Warstwa_1" xmlns="http://www.w3.org/2000/svg" xmlns:xlink="http://www.w3.org/1999/xlink" x="0px" y="0px"
	 width="978.387px" height="305.016px" viewBox="0 0 978.387 305.016" enable-background="new 0 0 978.387 305.016"
	 xml:space="preserve">
<g>
	<path fill="#C8D7E2" d="M845.733,117.767v99.497c0,15.994-4.543,28.228-13.629,36.693s-20.936,12.702-35.549,12.702
		c-14.426,0-26.104-4.248-35.034-12.752c-8.932-8.501-13.396-20.718-13.396-36.646v-99.497h11.241v99.424
		c0,12.491,3.436,22.146,10.306,28.962c6.867,6.817,15.831,10.227,26.885,10.227c11.24,0,20.389-3.394,27.446-10.174
		c7.057-6.782,10.584-16.453,10.584-29.014v-99.424L845.733,117.767L845.733,117.767z"/>
	<path fill="#C8D7E2" d="M890.228,203.555v60.987h-11.148V117.767h46.933c14.3,0,25.369,3.916,33.209,11.743
		c7.836,7.83,11.756,18.198,11.756,31.099c0,13.04-3.92,23.457-11.756,31.251c-7.84,7.798-18.909,11.694-33.209,11.694
		L890.228,203.555L890.228,203.555z M890.228,193.272h35.782c11.238,0,19.688-3.076,25.34-9.226
		c5.651-6.148,8.478-13.895,8.478-23.235c0-9.408-2.811-17.221-8.433-23.438c-5.619-6.216-14.082-9.325-25.385-9.325h-35.783
		L890.228,193.272L890.228,193.272z"/>
</g>
<g>
	<path fill="#C8D7E2" d="M379.471,88.202c0,15.012-4.113,27.147-12.337,36.413c-8.227,9.263-19.256,13.894-33.101,13.894
		c-13.628,0-24.501-4.631-32.619-13.894c-8.115-9.266-12.177-21.4-12.177-36.413V69.278c0-14.959,4.047-27.096,12.139-36.411
		c8.091-9.314,18.949-13.975,32.577-13.975c13.843,0,24.887,4.659,33.14,13.975c8.251,9.315,12.378,21.452,12.378,36.411V88.202z
		 M369.969,69.183c0-12.583-3.184-22.711-9.542-30.39c-6.361-7.678-15.187-11.519-26.473-11.519
		c-11.071,0-19.695,3.841-25.869,11.519c-6.177,7.677-9.265,17.807-9.265,30.39v19.113c0,12.688,3.102,22.873,9.305,30.55
		c6.199,7.679,14.838,11.517,25.909,11.517c11.338,0,20.163-3.824,26.472-11.476c6.31-7.651,9.463-17.849,9.463-30.591V69.183
		L369.969,69.183z"/>
	<path fill="#C8D7E2" d="M413.885,84.289v52.542h-9.503V20.649h39.364c12.457,0,22.013,2.73,28.666,8.187
		c6.654,5.458,9.981,13.428,9.981,23.915c0,6.176-1.784,11.698-5.35,16.566c-3.567,4.872-8.601,8.427-15.095,10.66
		c7.188,1.813,12.363,5.044,15.53,9.702c3.168,4.66,4.753,10.502,4.753,17.528v10.938c0,3.621,0.426,6.868,1.275,9.742
		c0.853,2.874,2.264,5.217,4.231,7.026v1.916h-9.741c-1.971-1.916-3.354-4.604-4.152-8.064c-0.799-3.461-1.197-7.054-1.197-10.777
		v-10.62c0-7.133-2.303-12.765-6.906-16.889c-4.604-4.126-11.031-6.188-19.282-6.188h-32.577L413.885,84.289L413.885,84.289z
		 M413.885,76.144h28.666c10.484,0,18.15-2.116,22.997-6.348c4.843-4.231,7.267-9.94,7.267-17.128
		c0-7.665-2.409-13.561-7.227-17.688c-4.819-4.125-12.101-6.188-21.839-6.188h-29.865L413.885,76.144L413.885,76.144z"/>
	<path fill="#C8D7E2" d="M512.26,136.831V20.569h33.776c14.216,0,25.952,4.738,35.217,14.215c9.263,9.475,13.894,21.64,13.894,36.49
		v14.935c0,14.902-4.631,27.066-13.894,36.491c-9.265,9.422-21.001,14.133-35.217,14.133L512.26,136.831L512.26,136.831z
		 M521.764,28.713v99.974h24.272c11.498,0,20.96-4.016,28.389-12.048c7.427-8.032,11.14-18.194,11.14-30.479V71
		c0-12.126-3.727-22.206-11.18-30.238c-7.453-8.033-16.902-12.05-28.348-12.05L521.764,28.713L521.764,28.713z"/>
	<path fill="#C8D7E2" d="M685.058,80.537H629.08v48.148h64.119v8.146h-73.62V20.569h73.225v8.146h-63.722v43.678h55.977
		L685.058,80.537L685.058,80.537z"/>
	<path fill="#C8D7E2" d="M723.066,84.289v52.542h-9.502V20.649h39.366c12.457,0,22.012,2.73,28.666,8.187
		c6.652,5.458,9.979,13.428,9.979,23.915c0,6.176-1.781,11.698-5.349,16.566c-3.567,4.872-8.598,8.427-15.092,10.66
		c7.185,1.813,12.362,5.044,15.531,9.702c3.166,4.66,4.75,10.502,4.75,17.528v10.938c0,3.621,0.425,6.868,1.276,9.742
		c0.853,2.874,2.262,5.217,4.232,7.026v1.916h-9.741c-1.97-1.916-3.354-4.604-4.152-8.064c-0.799-3.461-1.195-7.054-1.195-10.777
		v-10.62c0-7.133-2.305-12.765-6.907-16.889c-4.605-4.126-11.033-6.188-19.284-6.188h-32.581L723.066,84.289L723.066,84.289z
		 M723.066,76.144h28.667c10.487,0,18.151-2.116,22.997-6.348c4.845-4.231,7.268-9.94,7.268-17.128
		c0-7.665-2.41-13.561-7.229-17.688c-4.818-4.125-12.097-6.188-21.839-6.188h-29.864V76.144L723.066,76.144z"/>
</g>
<path fill="#F5F5F5" d="M139.745,162.242c2.222-0.062,4.282,0.229,6.153,0.777l10.31-77.699c0.23-1.734-1.189-3.413-3.221-3.804
	c-2.053-0.393-3.983,0.682-4.338,2.419l-16.383,79.731C134.641,162.815,137.172,162.308,139.745,162.242z"/>
<path fill="#F5F5F5" d="M203.12,114.174c-1.612-1.129-3.995-0.952-5.354,0.398l-49.384,49.006c3.836,1.668,6.521,4.864,7.252,9.063
	l48.112-53.982C204.986,117.263,204.717,115.283,203.12,114.174z"/>
<path fill="#7A9FB9" d="M152.811,175.63c0.009,7.464-6.833,15.021-15.293,16.873c-8.461,1.854-15.325-2.697-15.338-10.162
	c-0.015-7.466,6.834-15.018,15.288-16.871C145.927,163.616,152.797,168.164,152.811,175.63z"/>
<g>
	<path fill="#7A9FB9" d="M259.706,143.814c-65.692,0-119.357,52.996-122.909,119.733h245.819
		C379.065,196.81,325.399,143.814,259.706,143.814z"/>
</g>
<path fill="#FFFFFF" d="M252.201,163.104c0,0-28.362,11.688-41.335,35.89c-12.971,24.2-15.396,43.396-15.396,43.396h17.017
	c0,0,0.812-20.028,11.353-39.641C234.373,183.135,252.201,163.104,252.201,163.104z"/>
<path fill="#F5F5F5" d="M259.696,134.653c-7.216,0-13.244,5.156-14.896,12.064c6.158-0.977,12.461-1.499,18.888-1.499
	c3.57,0,7.104,0.186,10.602,0.495C272.302,139.32,266.547,134.653,259.696,134.653z"/>
<path fill="#7A9FB9" d="M259.696,134.653c6.854,0,12.605,4.667,14.588,11.062c3.663,0.321,7.268,0.813,10.827,1.457
	c-1.599-12.995-12.375-23.083-25.419-23.083c-13.62,0-24.762,10.997-25.567,24.813c3.496-0.888,7.061-1.61,10.671-2.183
	C246.45,139.809,252.48,134.653,259.696,134.653z"/>
<path fill="#50718A" d="M386.365,288.942c-2.661,2.739-7.912,4.981-11.672,4.981H141.301c-3.761,0-8.847-2.409-11.293-5.354
	l-11.613-13.947c-2.449-2.942-1.379-5.354,2.382-5.354h277.854c3.76,0,4.663,2.244,2.002,4.982L386.365,288.942z"/>
<g>
	<g>
		<g>
			<g opacity="0.8">
				<g>
					<path fill="#C8D7E2" d="M295.53,91.013c-1.003-1.259-2.132-2.421-3.219-3.612c-1.092-1.186-2.152-2.393-3.319-3.511
						l-3.43-3.405c-1.188-1.085-2.383-2.17-3.574-3.257c-1.169-1.104-2.409-2.135-3.645-3.169c-1.245-1.021-2.438-2.104-3.715-3.084
						c-1.27-0.987-2.538-1.975-3.811-2.964l-0.949-0.741l-0.979-0.704l-1.963-1.406c-2.577-1.919-5.28-3.653-7.947-5.438
						c-1.339-0.882-2.729-1.679-4.087-2.53c-1.355-0.841-2.717-1.687-4.129-2.439c-1.391-0.78-2.783-1.563-4.177-2.341
						c-1.406-0.742-2.837-1.444-4.249-2.167l-2.13-1.08l-2.16-0.982c-1.446-0.646-2.872-1.328-4.332-1.956
						c-11.72-4.954-23.915-8.592-36.342-10.647c-12.415-2.153-25.105-2.351-37.67-0.952c0.015,0.11-0.041,0.235-0.208,0.367
						c-0.211,0.147-0.518,0.294-0.876,0.426c-0.364,0.123-0.787,0.257-1.239,0.4c-0.911,0.271-1.958,0.478-2.94,0.563
						c-1.398,0.156-2.804,0.241-4.193,0.445c-1.392,0.219-2.779,0.438-4.166,0.658l-2.089,0.318
						c-0.701,0.089-1.381,0.28-2.071,0.416l-4.146,0.879c-10.067,2.971-19.733,7.26-28.757,12.643
						c7.271-4.215,14.882-7.69,22.695-10.289c2.327-0.816,4.305-0.983,4.235-0.292c-0.042,0.653-1.966,1.903-4.348,2.735
						c-1.308,0.416-2.578,0.979-3.86,1.521c-1.283,0.543-2.575,1.089-3.872,1.637c-1.291,0.564-2.543,1.246-3.824,1.864
						c-1.271,0.647-2.571,1.231-3.832,1.919c-1.246,0.706-2.499,1.413-3.751,2.12c-1.254,0.706-2.525,1.383-3.729,2.188
						c-1.222,0.77-2.441,1.537-3.665,2.307c-0.601,0.389-1.234,0.733-1.822,1.153l-1.774,1.232
						c-9.514,6.458-18.236,13.635-26.201,20.046c-8.715,9.732-16.221,20.465-22.584,31.741
						c-6.343,11.288-11.554,23.115-15.755,35.17c-0.564,1.487-1.046,3.013-1.527,4.532c-0.482,1.517-0.968,3.029-1.449,4.546
						l-0.724,2.266c-0.067,0.203-0.097,0.345-0.139,0.502l-0.118,0.464l-0.239,0.928c-0.289,1.262-0.543,2.551-0.755,3.884
						c-0.85,5.328-0.983,11.086-0.668,16.854c0.692,11.542,3.109,23.259,6.837,33.698c0.337,0.8,0.563,1.809,0.507,2.305
						c0.006,0.624-0.265,0.544-0.576-0.171c-4.443-10.604-7.619-23.081-8.723-35.748c-0.514-6.327-0.538-12.771,0.438-18.812
						c0.11-0.759,0.265-1.486,0.397-2.238c0.146-0.739,0.333-1.447,0.494-2.18c0.454-1.625,0.98-3.354,1.476-5.032
						c0.505-1.695,1.01-3.395,1.517-5.096c0.572-1.681,1.146-3.361,1.722-5.049c4.653-13.485,10.615-26.857,18.184-39.524
						c7.623-12.604,16.813-24.515,27.581-34.938c1.352-1.231,2.688-2.463,4.029-3.688c0.678-0.606,1.333-1.237,2.027-1.819
						l2.103-1.712c-8.566,5.961-16.751,12.997-24.406,21.11c-0.433,1.158-1.396,2.774-2.744,4.478l-4.533,6.44
						c-0.771,1.058-1.469,2.173-2.171,3.283l-2.113,3.319c0.232-0.109,0.416-0.129,0.544-0.053c0.225,0.176,0.15,0.729-0.144,1.474
						c-0.291,0.752-0.835,1.667-1.439,2.667c-7.146,11.038-13.183,22.771-18.509,34.966c-0.106,0.303-0.236,0.575-0.375,0.849
						l-2.205,5.76c-0.377,0.953-0.711,1.927-1.043,2.903l-0.998,2.922l-1,2.919l-0.501,1.46c-0.165,0.483-0.347,0.984-0.459,1.419
						c-0.263,0.901-0.544,1.786-0.747,2.717l-0.336,1.38l-0.28,1.408c-1.479,7.532-1.699,15.561-1.213,23.53
						c0.508,7.983,1.748,15.979,3.648,23.744c0.954,3.881,2.09,7.703,3.414,11.407c1.324,3.691,2.842,7.303,4.628,10.593
						c0.877,1.662,1.849,3.208,2.854,4.67l0.78,1.042c0.135,0.175,0.248,0.339,0.403,0.524l0.481,0.573l1.919,2.307
						c0.647,0.761,1.261,1.563,1.937,2.28l2.001,2.195c1.308,1.505,2.725,2.846,4.106,4.233l1.043,1.048l1.089,0.966l2.174,1.943
						c0.71,0.675,1.502,1.213,2.243,1.826c0.764,0.592,1.492,1.229,2.275,1.79l2.363,1.651c0.396,0.273,0.78,0.564,1.185,0.821
						l1.232,0.751l2.461,1.514l2.553,1.371l1.275,0.691l1.323,0.614l2.646,1.249l2.728,1.135c0.903,0.386,1.815,0.761,2.76,1.088
						l2.8,1.03c0.934,0.35,1.906,0.646,2.856,0.97c1.896,0.653,3.841,1.243,5.78,1.838c3.89,1.196,7.852,2.304,11.819,3.438
						l5.977,1.696c1.957,0.563,3.869,1.077,5.78,1.496c0.852,0.135,2.133,0.396,2.716,0.532c0.686,0.162,0.572,0.236-0.244,0.184
						c0.022,0.068,0.237,0.192-0.036,0.166c-1.386-0.154-2.815-0.416-4.248-0.703c-1.437-0.285-2.853-0.616-4.318-0.965
						c-2.939-0.688-5.872-1.375-8.804-2.062c-5.849-1.363-11.665-2.696-17.417-4.333c-5.738-1.649-11.401-3.649-16.854-6.386
						c-5.452-2.727-10.672-6.229-15.563-10.511c-0.87-0.702-1.68-1.478-2.493-2.252l-2.44-2.313
						c-1.553-1.635-3.136-3.23-4.646-4.906l-2.226-2.56c-0.73-0.849-1.518-1.703-2.15-2.551c-1.336-1.696-2.55-3.536-3.644-5.466
						c0.998,2.076,2.107,4.058,3.351,5.89c0.583,0.929,1.323,1.831,1.975,2.74c0.67,0.908,1.333,1.816,1.992,2.713
						c1.347,1.768,2.737,3.445,4.055,5.146c1.406,1.604,2.75,3.215,4.118,4.734c4.453,3.917,9.33,7.337,14.492,10.18
						c5.167,2.844,10.627,5.063,16.175,6.894c5.553,1.837,11.196,3.313,16.816,4.705c2.811,0.691,5.612,1.378,8.399,2.063
						c2.794,0.662,5.561,1.395,8.337,1.977l-0.896-0.3c1.979,0.395,3.823,0.782,3.862,0.934c0.188,0.183-1.469,0.121-3.513-0.24
						c-2.64-0.437-5.25-0.969-7.871-1.456c-2.62-0.502-5.241-1.008-7.866-1.512c-5.255-1.019-10.52-2.157-15.761-3.544
						c-5.246-1.37-10.462-3.142-15.516-5.438c-5.05-2.294-9.933-5.122-14.479-8.455c-1.135-0.833-2.218-1.736-3.333-2.598
						c-0.546-0.443-1.128-0.858-1.646-1.334l-1.583-1.4l-1.585-1.405c-0.534-0.466-1.058-0.937-1.546-1.442l-3.018-2.971
						l-0.753-0.746l-0.712-0.774l-1.436-1.556l-1.437-1.556c-0.479-0.521-0.957-1.021-1.441-1.635
						c-1.964-2.338-3.638-4.834-5.13-7.39c-2.965-5.131-5.262-10.517-7.188-16.017c-1.894-5.509-3.427-11.133-4.583-16.851
						c-2.297-11.436-3.382-23.216-2.347-35.278c0.108-1.507,0.325-3.021,0.507-4.534c0.244-1.517,0.46-3.033,0.794-4.557
						c0.282-1.521,0.684-3.042,1.082-4.564l0.682-2.282c0.233-0.738,0.47-1.378,0.704-2.07l2.827-8.186
						c1.021-2.699,2.097-5.381,3.146-8.078c4.354-10.716,9.396-21.191,15.213-31.271l4.5-7.482l4.838-7.285
						c0.394-0.612,0.815-1.208,1.253-1.793l1.291-1.767l2.583-3.537c0.433-0.586,0.851-1.188,1.303-1.762l1.373-1.708l2.752-3.416
						c11.776-14.375,25.788-26.82,41.535-36.407c7.905-4.735,16.225-8.755,24.847-11.945l6.54-2.188
						c0.543-0.191,1.096-0.351,1.651-0.491l1.666-0.446l3.33-0.887c2.208-0.645,4.474-1.034,6.729-1.493l3.378-0.666
						c1.134-0.188,2.275-0.318,3.413-0.479c5.409-0.895,9.933-0.179,9.909,0.9c-0.014,0.568-1.102,1.172-2.843,1.696
						c-0.434,0.13-0.908,0.259-1.421,0.38c-0.507,0.148-1.045,0.297-1.617,0.438c-1.138,0.278-2.39,0.532-3.711,0.738
						c-1.082,0.186-2.175,0.303-3.246,0.541l-3.217,0.701c-2.144,0.477-4.294,0.904-6.391,1.562l-3.16,0.904l-1.577,0.456
						l-0.793,0.23l-0.775,0.271l-6.196,2.202c-8.167,3.188-16.021,7.127-23.507,11.699l-5.506,3.598
						c-0.933,0.582-1.807,1.245-2.688,1.896l-2.654,1.953l-2.648,1.958L86.1,53.089l-2.548,2.096c-0.85,0.698-1.703,1.394-2.5,2.151
						L76.183,61.8c-0.827,0.725-1.57,1.548-2.354,2.322l-2.325,2.355l-2.32,2.365l-2.209,2.477l-2.208,2.478
						c-0.728,0.834-1.493,1.633-2.173,2.511c-9.997,11.993-18.515,25.038-25.671,38.71c5.914-10.512,12.853-20.418,20.63-29.398
						c1.296-1.877,2.774-3.612,4.194-5.404c1.435-1.777,2.84-3.59,4.4-5.268c1.531-1.704,3.052-3.43,4.613-5.115
						c1.627-1.624,3.256-3.253,4.891-4.884c6.674-6.371,13.927-12.229,21.748-17.347c18.722-12.147,39.44-19.373,60.62-21.688
						c21.202-2.32,42.896,0.161,64.271,7.291c10.352,3.461,19.785,7.62,28.392,12.512c8.612,4.873,16.47,10.323,23.699,16.403
						c7.22,6.083,13.828,12.805,19.686,20.436c2.903,3.838,5.67,7.856,8.095,12.201c0.601,1.09,1.211,2.176,1.797,3.285
						c0.537,1.138,1.074,2.281,1.616,3.429c0.27,0.575,0.544,1.147,0.795,1.733c0.229,0.599,0.456,1.196,0.684,1.8
						c0.438,1.211,0.938,2.391,1.316,3.634c0.486,1.746,1.019,3.67,1.212,4.397c0.125,0.356,0.123,0.35,0.016,0.041
						c-0.096-0.327-0.27-0.945-0.518-1.803c-1.275-4.853-3.419-9.354-5.684-13.717c-0.611-1.063-1.223-2.126-1.833-3.188
						l-0.932-1.582l-1.015-1.522c-0.679-1.014-1.351-2.023-2.027-3.035c-0.669-1.019-1.437-1.957-2.15-2.934
						c-5.837-7.732-12.522-14.683-19.853-20.953c-7.342-6.269-15.322-11.888-23.959-16.791c-4.313-2.461-8.813-4.699-13.466-6.747
						c-1.147-0.551-2.349-0.996-3.537-1.464c-1.191-0.465-2.39-0.933-3.591-1.404c-2.38-0.998-4.882-1.729-7.363-2.561
						c-21.163-6.784-42.855-9.092-64.085-6.59c-21.216,2.484-42,9.863-60.785,22.045c-1.245,0.858-2.49,1.718-3.727,2.571
						c-1.229,0.872-2.496,1.682-3.688,2.604c8.33-5.344,17.024-9.751,25.845-13.144c8.299-3.982,16.938-7.068,25.759-9.218
						c8.828-2.146,17.853-3.25,26.894-3.491c18.094-0.455,36.3,2.684,53.831,9.149c6.833,2.438,13.463,5.323,19.854,8.613
						c6.433,3.258,12.595,7.063,18.558,11.185l2.229,1.563l1.115,0.781l1.085,0.821l4.332,3.313
						c2.807,2.317,5.662,4.604,8.338,7.109c5.413,4.938,10.622,10.199,15.313,16.003c1.22,1.435,2.273,2.938,3.141,4.104
						c0.425,0.588,0.794,1.1,1.064,1.511c0.26,0.421,0.434,0.732,0.504,0.897c0.145,0.331-0.175-0.002-0.813-0.786
						C297.742,93.661,296.721,92.465,295.53,91.013z M18.516,186.882c-0.873-6.673-1.147-13.5-0.557-20.331
						c-0.401,3.332-0.611,6.677-0.674,10.021c-0.052,3.343,0.057,6.681,0.274,10.006c0.209,3.329,0.587,6.643,1.057,9.938
						c0.459,3.298,1.052,6.577,1.767,9.829c1.408,6.505,3.282,12.917,5.747,19.099c1.24,3.092,2.628,6.122,4.242,9.029
						c1.606,2.906,3.467,5.692,5.646,8.18c-3.037-3.768-5.348-8.131-7.326-12.631c-1.966-4.518-3.563-9.226-4.938-13.996
						C21.067,206.463,19.303,196.615,18.516,186.882z"/>
					<path fill="#C8D7E2" d="M15.733,220.701c-2.283-7.687-3.972-15.604-5.222-23.512c-0.633-3.951-1.156-7.902-1.581-11.832
						c-0.431-3.928-0.772-7.833-1.002-11.716c-0.058-0.736-0.198-1.193-0.376-0.826c-0.18,0.377-0.265,1.241-0.215,2.104
						c0.573,7.442,1.407,15.085,2.676,22.751c1.231,7.665,2.879,15.34,5.048,22.732c0.282,0.891,0.609,1.584,0.793,1.603
						C16.027,222.107,15.949,221.441,15.733,220.701z"/>
					<path fill="#C8D7E2" d="M7.677,162.308c0.237-3.354,0.713-6.8,1.494-10.324l0.313-1.33l0.16-0.662l0.079-0.33l0.07-0.275
						l0.597-2.209c0.403-1.476,0.801-2.954,1.209-4.434c0.417-1.479,0.798-2.975,1.257-4.447c0.481-1.468,0.963-2.938,1.447-4.41
						c0.978-2.943,1.932-5.917,3.103-8.824c4.42-11.721,9.943-23.298,16.769-34.317C40.979,79.721,49,69.208,58.222,59.653
						c9.225-9.541,19.62-18.168,31.073-25.254c18.558-11.592,39.104-18.798,59.964-21.461l3.917-0.457l1.956-0.224l1.967-0.114
						l3.931-0.216c1.311-0.057,2.614-0.182,3.929-0.146c2.623,0.017,5.241-0.013,7.855,0.044c2.605,0.166,5.224,0.33,7.839,0.495
						c10.437,0.945,20.759,2.998,30.855,6.04c1.658,0.512,3.33,0.962,4.95,1.538c1.618,0.593,3.23,1.185,4.843,1.771
						c3.246,1.094,6.328,2.54,9.421,3.833c0.766,0.33,1.539,0.659,2.302,0.988c0.745,0.361,1.491,0.727,2.239,1.087
						c1.486,0.721,2.961,1.436,4.425,2.146c1.473,0.676,2.896,1.468,4.307,2.232c1.416,0.76,2.815,1.513,4.201,2.257
						c0.916,0.565,1.492,0.767,1.234,0.415c-0.3-0.413-1.228-1.146-2.284-1.719c-1.443-0.814-2.897-1.631-4.352-2.444l-1.09-0.613
						l-1.109-0.556l-2.219-1.114c-1.491-0.737-2.978-1.477-4.473-2.216c-1.49-0.734-3.051-1.345-4.577-2.027
						c-1.537-0.666-3.079-1.332-4.617-1.997c-1.574-0.583-3.157-1.165-4.737-1.749l-2.376-0.878
						c-0.795-0.292-1.582-0.602-2.396-0.835c-1.621-0.498-3.246-0.995-4.866-1.493l-2.438-0.749
						c-0.813-0.258-1.652-0.425-2.473-0.643c-1.66-0.412-3.319-0.824-4.981-1.236c-1.655-0.445-3.352-0.719-5.042-1.043
						c-1.688-0.315-3.385-0.635-5.083-0.951c-1.705-0.262-3.423-0.463-5.142-0.685l-2.577-0.324l-1.296-0.161l-1.295-0.096
						l-5.21-0.359c-0.872-0.055-1.742-0.135-2.614-0.164l-2.62-0.022l-5.252-0.037c-1.754,0.016-3.502,0.153-5.261,0.229
						l-2.636,0.134l-1.322,0.073c-0.438,0.03-0.878,0.093-1.313,0.139l-5.258,0.597c-0.878,0.109-1.762,0.186-2.634,0.323
						l-2.609,0.45l-5.236,0.921c-1.739,0.356-3.45,0.805-5.182,1.209l-2.592,0.624l-1.296,0.313l-1.274,0.385l-5.104,1.551
						c-0.846,0.272-1.709,0.507-2.542,0.817l-2.502,0.933l-5.006,1.88c-1.653,0.671-3.263,1.42-4.895,2.135l-2.438,1.097
						l-1.216,0.555c-0.404,0.188-0.792,0.404-1.188,0.604l-4.727,2.473l-2.358,1.25l-2.289,1.362l-4.561,2.761
						c-11.436,7.238-21.88,15.991-31.165,25.701c-9.29,9.713-17.398,20.4-24.278,31.616c-1.657,2.839-3.346,5.653-4.924,8.512
						c-1.521,2.892-3.022,5.776-4.477,8.673c-1.356,2.939-2.682,5.884-3.99,8.813c-1.282,2.944-2.396,5.944-3.553,8.908l-0.85,2.224
						c-0.268,0.747-0.516,1.502-0.767,2.251c-0.5,1.5-0.994,2.998-1.492,4.492c-0.487,1.497-0.999,2.979-1.443,4.479
						c-0.417,1.507-0.833,3.014-1.248,4.515c-0.402,1.502-0.813,2.999-1.217,4.493c-0.373,1.343-0.87,3.373-1.233,5.117
						c-0.737,3.583-1.089,7.057-1.293,10.449c-0.031,0.726,0.108,1.139,0.293,0.896C7.432,164.037,7.618,163.026,7.677,162.308z"/>
					<path fill="#C8D7E2" d="M169.543,12.223l-5.652,0.14l-5.639,0.472l-2.818,0.247c-0.933,0.109-1.866,0.268-2.799,0.399
						l-5.596,0.839c-1.854,0.346-3.695,0.762-5.545,1.14l-2.773,0.589c-0.924,0.192-1.824,0.479-2.74,0.717l-5.476,1.496
						c-1.817,0.527-3.597,1.174-5.396,1.755C110.71,24.818,97.04,31.851,84.021,40.314c-0.876,0.576-1.792,1.104-2.628,1.727
						c-0.851,0.61-1.694,1.22-2.544,1.83c-1.683,1.231-3.394,2.43-5.006,3.742c-3.181,2.673-6.442,5.276-9.384,8.229
						c-1.493,1.453-3.021,2.888-4.452,4.415c-1.407,1.548-2.813,3.114-4.208,4.698c-0.688,0.798-1.406,1.576-2.071,2.401
						c-0.653,0.834-1.31,1.67-1.967,2.513c-1.297,1.686-2.62,3.377-3.883,5.126c-6.664,9.458-11.941,18.849-16.813,28.305
						c-1.189,2.376-2.383,4.749-3.579,7.13c-1.108,2.419-2.235,4.834-3.386,7.257c-0.293,0.604-0.58,1.21-0.875,1.818
						c-0.266,0.617-0.542,1.231-0.813,1.851c-0.543,1.236-1.097,2.479-1.647,3.728c-0.56,1.244-1.125,2.494-1.69,3.754
						c-0.571,1.257-1.072,2.553-1.628,3.837c-0.306,0.671-0.476,1.403-0.378,1.652c0.152,0.094,0.485-0.323,0.795-1.001
						c0.613-1.385,1.178-2.779,1.807-4.146c0.627-1.362,1.261-2.72,1.884-4.074c1.243-2.713,2.438-5.431,3.776-8.066
						c0.645-1.333,1.289-2.66,1.933-3.988c0.64-1.329,1.255-2.668,1.965-3.961c1.36-2.617,2.717-5.229,4.082-7.836
						c5.645-10.343,11.94-20.438,19.562-30.083c14.188-17.878,32.146-32.407,52.247-42.306c20.094-9.933,42.17-15.336,64.551-16.013
						c0.951-0.015,1.534-0.186,1.574-0.341C171.189,12.331,170.386,12.199,169.543,12.223z"/>
					<path fill="#C8D7E2" d="M75.223,85.406c-4.966,5.487-9.893,11.306-14.214,17.669l-1.648,2.363l-0.82,1.184l-0.771,1.224
						c-1.021,1.637-2.042,3.272-3.061,4.907c-1.045,1.614-1.938,3.337-2.873,5.018c-0.917,1.693-1.867,3.36-2.749,5.063
						c-3.413,6.875-6.497,13.813-8.89,20.783c-0.591,1.74-1.177,3.469-1.758,5.18c-0.546,1.721-1.012,3.463-1.49,5.169
						c-0.476,1.71-0.936,3.401-1.368,5.074c-0.07,0.229-0.07,0.354-0.104,0.525l-0.085,0.488l-0.17,0.962
						c-0.083,0.67-0.163,1.336-0.244,1.995c-0.015,0.588,0.174,0.718,0.415,0.387c0.236-0.323,0.531-1.017,0.566-1.541
						c0.059-0.661,0.192-1.236,0.293-1.866l0.078-0.471l0.154-0.604c0.108-0.408,0.219-0.816,0.324-1.228
						c0.438-1.639,0.902-3.293,1.38-4.964c0.905-3.367,2.144-6.663,3.332-10.057c0.311-0.843,0.601-1.699,0.935-2.537
						c0.349-0.831,0.694-1.666,1.046-2.502c0.71-1.671,1.426-3.354,2.145-5.042c0.35-0.854,0.746-1.679,1.155-2.504
						c0.405-0.826,0.81-1.655,1.217-2.485c0.822-1.653,1.626-3.331,2.494-4.974c7.009-13.113,15.859-25.479,25.401-36.068
						c0.938-0.998,1.557-2.036,1.41-2.389C77.106,83.877,76.237,84.375,75.223,85.406z"/>
					<path fill="#C8D7E2" d="M21.37,227.064c-3.057-7.46-5.197-15.177-6.742-22.997c-1.522-7.825-2.438-15.771-2.583-23.813
						c-0.08-4.021,0.036-8.066,0.397-12.134c0.368-4.068,0.971-8.163,1.974-12.27c0.228-1.022,0.532-2.051,0.83-3.076
						c0.292-1.075,0.599-1.913,0.899-2.847c0.601-1.83,1.193-3.659,1.788-5.486l0.881-2.743c0.305-0.91,0.649-1.807,0.969-2.712
						c0.646-1.809,1.292-3.613,1.934-5.417c5.859-13.467,12.784-26.43,20.53-38.897c1.184-1.736,1.837-3.366,1.452-3.649
						c-0.385-0.285-1.68,0.905-2.873,2.66c-1.019,1.563-1.984,3.155-2.987,4.724c-0.988,1.578-2.021,3.13-2.968,4.729l-2.791,4.829
						c-0.908,1.622-1.886,3.209-2.696,4.881c-0.028-0.268-0.124-0.419-0.292-0.445c5.88-11.685,12.793-22.927,20.771-33.419
						c7.983-10.485,17.045-20.215,27.113-28.804c1.156-0.911,1.859-1.812,1.662-2.04c-0.188-0.266-1.281,0.278-2.431,1.195
						c-10.606,8.888-20.05,19.081-28.247,30.094c-8.207,11.016-15.188,22.838-21.026,35.094c-0.555,0.841-1.123,1.857-1.63,2.971
						c-1.269,2.566-2.329,5.214-3.433,7.829c-0.544,1.311-1.096,2.618-1.635,3.928c-0.549,1.305-0.998,2.646-1.501,3.967
						c-0.961,2.655-1.988,5.278-2.884,7.945l-2.578,8.029l-0.317,1.004c-0.106,0.33-0.212,0.656-0.325,1.068l-0.652,2.338
						c-0.37,1.551-0.761,3.105-1.015,4.644c-0.584,3.089-0.931,6.143-1.157,9.174c-0.249,3.037-0.293,6.038-0.288,9.033
						c0.051,2.99,0.184,5.971,0.434,8.937c0.684,8.452,2.023,16.646,3.938,24.668c1.943,8.018,4.446,15.868,8.071,23.486
						c1.831,3.801,3.939,7.548,6.65,11.146c1.463,1.908,2.744,3.257,4.082,4.771l2.008,2.224l2.117,2.154
						c5.642,5.724,12.022,10.989,19.146,15.108c5.618,3.268,11.618,5.642,17.624,7.415c6.014,1.778,12.046,3.019,18.072,4.179
						c5.059,0.966,10.158,1.893,15.145,2.738c1.235,0.208,2.504,0.417,3.784,0.606c1.27,0.185,2.549,0.342,3.831,0.445
						c1.288,0.102,2.578,0.159,3.895,0.13c1.324-0.051,2.666-0.142,4.19-0.646c0.541-0.199,1.101-0.431,1.686-0.874
						c0.583-0.438,1.167-1.148,1.433-1.969c0.271-0.815,0.245-1.577,0.146-2.179l-0.08-0.41l-0.047-0.188
						c-0.042-0.11-0.071-0.217-0.117-0.327c-0.172-0.435-0.399-0.85-0.62-1.277c-0.104-0.216-0.213-0.438-0.301-0.668
						c-0.078-0.217-0.173-0.508-0.004-0.69c0.178-0.157,0.411-0.143,0.626-0.13c0.215,0.016,0.43,0.06,0.646,0.104
						c0.429,0.1,0.855,0.233,1.293,0.379c1.095,0.387,2.172,0.773,3.247,1.161c5.486,2.018,10.696,4.28,15.781,6.612
						c0.618,0.297,0.673,0.331,0.208,0.1c-0.354-0.166-1.212-0.564-1.727-0.809c-2.53-1.171-5.146-2.339-7.82-3.467
						c-1.337-0.563-2.688-1.124-4.049-1.66c-0.684-0.266-1.366-0.528-2.05-0.789l-1.971-0.727c-0.563-0.208-0.996-0.373-1.476-0.533
						c-0.463-0.16-0.927-0.305-1.38-0.424c-0.453-0.105-0.905-0.228-1.351-0.152c-0.11,0.018-0.22,0.073-0.29,0.174
						c-0.071,0.103-0.069,0.241-0.048,0.359c0.045,0.252,0.151,0.488,0.261,0.715c0.221,0.438,0.438,0.876,0.659,1.309
						c0.103,0.215,0.194,0.428,0.27,0.646c0.041,0.102,0.072,0.226,0.106,0.357c0.055,0.261,0.107,0.521,0.126,0.817
						c0.047,0.586-0.015,1.308-0.321,1.995c-0.301,0.703-0.831,1.24-1.324,1.606c-1.017,0.718-1.937,0.954-2.78,1.146
						c-1.669,0.296-3.15,0.257-4.631,0.205c-1.463-0.072-2.899-0.211-4.306-0.399c-1.409-0.188-2.814-0.416-4.184-0.646
						c-1.354-0.233-2.712-0.467-4.062-0.699c-5.415-0.942-10.825-1.862-16.257-2.999c-5.425-1.14-10.881-2.425-16.307-4.208
						c-5.413-1.8-10.782-4.089-15.896-6.953c-7.76-4.902-14.225-11.091-19.891-17.696c-1.382-1.68-2.769-3.359-4.157-5.044
						c-1.463-1.874-2.859-3.883-4.032-5.898C25.089,235.624,23.176,231.404,21.37,227.064z"/>
				</g>
			</g>
		</g>
	</g>
</g>
<path fill="#F5F5F5" d="M150.113,62.363L155.64,61l-0.031-20.091l-5.526,1.361L150.113,62.363z M22.871,205.948l20.199-4.987
	l-0.007-5.496l-20.204,4.987L22.871,205.948z M58.901,104.665l14.31,10.681l3.898-4.854L62.805,99.815L58.901,104.665z
	 M246.911,58.237l-3.915-2.921L228.732,73.05l3.915,2.922L246.911,58.237z"/>
</svg>
